# https://github.com/mikedh/trimesh
v -5.00000000 -5.00000000 5.00000000
v -5.00000000 5.00000000 5.00000000
v -5.00000000 -5.00000000 -5.00000000
v 5.00000000 -5.00000000 -5.00000000
v -5.00000000 5.00000000 -5.00000000
v 5.00000000 5.00000000 5.00000000
v 5.00000000 -5.00000000 5.00000000
v 5.00000000 5.00000000 -5.00000000
vn -0.57735027 -0.57735027 0.57735027
vn -0.57735027 0.57735027 0.57735027
vn -0.57735027 -0.57735027 -0.57735027
vn 0.57735027 -0.57735027 -0.57735027
vn -0.57735027 0.57735027 -0.57735027
vn 0.57735027 0.57735027 0.57735027
vn 0.57735027 -0.57735027 0.57735027
vn 0.57735027 0.57735027 -0.57735027
f 1//1 2//2 3//3
f 4//4 1//1 3//3
f 3//3 2//2 5//5
f 5//5 4//4 3//3
f 1//1 6//6 2//2
f 7//7 1//1 4//4
f 7//7 6//6 1//1
f 2//2 6//6 5//5
f 8//8 4//4 5//5
f 5//5 6//6 8//8
f 8//8 7//7 4//4
f 6//6 7//7 8//8

